<svg width="15" height="16" viewBox="0 0 15 16" fill="none" xmlns="http://www.w3.org/2000/svg">
<path d="M1.66667 16C1.20833 16 0.815833 15.8261 0.489167 15.4782C0.163055 15.1298 0 14.7111 0 14.2222V1.77778C0 1.28889 0.163055 0.870222 0.489167 0.521778C0.815833 0.173926 1.20833 0 1.66667 0H13.3333C13.7917 0 14.1842 0.173926 14.5108 0.521778C14.8369 0.870222 15 1.28889 15 1.77778V14.2222C15 14.7111 14.8369 15.1298 14.5108 15.4782C14.1842 15.8261 13.7917 16 13.3333 16H1.66667ZM4.16667 12.4444C4.40278 12.4444 4.60083 12.3591 4.76083 12.1884C4.92028 12.0184 5 11.8074 5 11.5556C5 11.3037 4.92028 11.0924 4.76083 10.9218C4.60083 10.7517 4.40278 10.6667 4.16667 10.6667C3.93056 10.6667 3.7325 10.7517 3.5725 10.9218C3.41306 11.0924 3.33333 11.3037 3.33333 11.5556C3.33333 11.8074 3.41306 12.0184 3.5725 12.1884C3.7325 12.3591 3.93056 12.4444 4.16667 12.4444ZM4.16667 8.88889C4.40278 8.88889 4.60083 8.80356 4.76083 8.63289C4.92028 8.46281 5 8.25185 5 8C5 7.74815 4.92028 7.53689 4.76083 7.36622C4.60083 7.19615 4.40278 7.11111 4.16667 7.11111C3.93056 7.11111 3.7325 7.19615 3.5725 7.36622C3.41306 7.53689 3.33333 7.74815 3.33333 8C3.33333 8.25185 3.41306 8.46281 3.5725 8.63289C3.7325 8.80356 3.93056 8.88889 4.16667 8.88889ZM4.16667 5.33333C4.40278 5.33333 4.60083 5.248 4.76083 5.07733C4.92028 4.90726 5 4.6963 5 4.44444C5 4.19259 4.92028 3.98133 4.76083 3.81067C4.60083 3.64059 4.40278 3.55556 4.16667 3.55556C3.93056 3.55556 3.7325 3.64059 3.5725 3.81067C3.41306 3.98133 3.33333 4.19259 3.33333 4.44444C3.33333 4.6963 3.41306 4.90726 3.5725 5.07733C3.7325 5.248 3.93056 5.33333 4.16667 5.33333ZM7.5 12.4444H10.8333C11.0694 12.4444 11.2672 12.3591 11.4267 12.1884C11.5867 12.0184 11.6667 11.8074 11.6667 11.5556C11.6667 11.3037 11.5867 11.0924 11.4267 10.9218C11.2672 10.7517 11.0694 10.6667 10.8333 10.6667H7.5C7.26389 10.6667 7.06611 10.7517 6.90667 10.9218C6.74667 11.0924 6.66667 11.3037 6.66667 11.5556C6.66667 11.8074 6.74667 12.0184 6.90667 12.1884C7.06611 12.3591 7.26389 12.4444 7.5 12.4444ZM7.5 8.88889H10.8333C11.0694 8.88889 11.2672 8.80356 11.4267 8.63289C11.5867 8.46281 11.6667 8.25185 11.6667 8C11.6667 7.74815 11.5867 7.53689 11.4267 7.36622C11.2672 7.19615 11.0694 7.11111 10.8333 7.11111H7.5C7.26389 7.11111 7.06611 7.19615 6.90667 7.36622C6.74667 7.53689 6.66667 7.74815 6.66667 8C6.66667 8.25185 6.74667 8.46281 6.90667 8.63289C7.06611 8.80356 7.26389 8.88889 7.5 8.88889ZM7.5 5.33333H10.8333C11.0694 5.33333 11.2672 5.248 11.4267 5.07733C11.5867 4.90726 11.6667 4.6963 11.6667 4.44444C11.6667 4.19259 11.5867 3.98133 11.4267 3.81067C11.2672 3.64059 11.0694 3.55556 10.8333 3.55556H7.5C7.26389 3.55556 7.06611 3.64059 6.90667 3.81067C6.74667 3.98133 6.66667 4.19259 6.66667 4.44444C6.66667 4.6963 6.74667 4.90726 6.90667 5.07733C7.06611 5.248 7.26389 5.33333 7.5 5.33333Z" fill="white" fill-opacity="0.12"/>
</svg>
