<svg width="19" height="20" viewBox="0 0 19 20"  xmlns="http://www.w3.org/2000/svg">
<path d="M16.2186 3.28139C14.4377 1.5005 12.0186 0.5 9.5 0.5C6.98144 0.5 4.56228 1.5005 2.78139 3.28139C1.0005 5.06228 0 7.48144 0 10C0 12.5186 1.0005 14.9377 2.78139 16.7186C4.56228 18.4995 6.98144 19.5 9.5 19.5C12.0186 19.5 14.4377 18.4995 16.2186 16.7186C17.9995 14.9377 19 12.5186 19 10C19 7.48144 17.9995 5.06228 16.2186 3.28139ZM9.5 15.5944C8.74 15.5944 8.12778 14.9822 8.12778 14.2222C8.12778 13.4622 8.74 12.85 9.5 12.85C10.26 12.85 10.8722 13.4622 10.8722 14.2222C10.8722 14.9822 10.26 15.5944 9.5 15.5944ZM10.5556 10C10.5556 10.583 10.083 11.0556 9.5 11.0556C8.91703 11.0556 8.44444 10.583 8.44444 10V5.77778C8.44444 5.19481 8.91703 4.72222 9.5 4.72222C10.083 4.72222 10.5556 5.19481 10.5556 5.77778V10Z" fill="white" fill-opacity="0.12"/>
</svg>
