<svg width="11" height="11" viewBox="0 0 11 11" fill="none" xmlns="http://www.w3.org/2000/svg">
<path d="M10.1444 11L6.29444 7.15C5.98889 7.39444 5.6375 7.58796 5.24028 7.73056C4.84306 7.87315 4.42037 7.94444 3.97222 7.94444C2.86204 7.94444 1.92256 7.56006 1.15378 6.79128C0.384593 6.02209 0 5.08241 0 3.97222C0 2.86204 0.384593 1.92235 1.15378 1.15317C1.92256 0.384389 2.86204 0 3.97222 0C5.08241 0 6.02209 0.384389 6.79128 1.15317C7.56006 1.92235 7.94444 2.86204 7.94444 3.97222C7.94444 4.42037 7.87315 4.84306 7.73056 5.24028C7.58796 5.6375 7.39444 5.98889 7.15 6.29444L11 10.1444L10.1444 11ZM3.97222 6.72222C4.73611 6.72222 5.38552 6.45496 5.92044 5.92044C6.45496 5.38552 6.72222 4.73611 6.72222 3.97222C6.72222 3.20833 6.45496 2.55893 5.92044 2.024C5.38552 1.48948 4.73611 1.22222 3.97222 1.22222C3.20833 1.22222 2.55893 1.48948 2.024 2.024C1.48948 2.55893 1.22222 3.20833 1.22222 3.97222C1.22222 4.73611 1.48948 5.38552 2.024 5.92044C2.55893 6.45496 3.20833 6.72222 3.97222 6.72222Z" fill="white" fill-opacity="0.12"/>
</svg>
