<svg width="17" height="18" viewBox="0 0 17 18" fill="none" xmlns="http://www.w3.org/2000/svg">
<path d="M8.30924 0.5C7.61583 0.592246 6.98206 1.39711 6.93124 2.45946V2.46022C6.92897 2.50572 6.92776 2.55128 6.92763 2.59684C6.92763 3.2195 7.13811 3.76997 7.44628 4.15017L7.823 4.61494L7.24298 4.72656C6.84308 4.80362 6.55024 5.01966 6.2991 5.37266C6.2141 5.49215 6.13602 5.62789 6.06437 5.7768C3.92389 5.53173 2.42213 4.97536 2.42213 4.33254C2.42213 3.67178 4.00859 3.11542 6.24442 2.88758C6.23641 2.79093 6.2324 2.69398 6.2324 2.59699V2.59692C6.2324 2.56495 6.2333 2.53321 6.23415 2.5014C2.64696 2.75903 0.0106764 3.6107 0.010602 4.62145C0.0105276 5.58539 2.40858 6.40471 5.74215 6.70193C5.73508 6.73016 5.72749 6.75768 5.72072 6.78626C5.63293 7.15615 5.57006 7.55573 5.52475 7.96711C5.52438 7.96711 5.52401 7.96711 5.52363 7.96718C5.50808 8.1062 5.49462 8.24651 5.4829 8.38754L5.48476 8.38735C5.4358 8.98775 5.41884 9.60055 5.41434 10.174H6.74959L6.82827 11.2548C4.28975 11.0648 2.42216 10.4555 2.42216 9.73857C2.42216 9.23461 3.34584 8.79138 4.7758 8.50825C4.78696 8.3539 4.80035 8.19943 4.81583 8.04542C1.97301 8.40135 0.0107136 9.15542 0.0106392 10.0276C0.0105648 11.0996 2.97585 11.9928 6.89627 12.1879L7.11724 15.2235C7.50784 15.3243 8.04129 15.3819 8.56867 15.3783C9.08166 15.3748 9.58181 15.3133 9.92461 15.2261L10.1204 12.1876C14.0378 11.992 17 11.099 17 10.0276C17 9.1518 15.0211 8.39519 12.1591 8.04109C12.1704 8.19407 12.1799 8.34732 12.1872 8.50041C13.6337 8.78316 14.5667 9.22993 14.5667 9.73857C14.5667 10.4555 12.714 11.0648 10.1805 11.2548L10.2501 10.174H11.5216C11.5212 9.59888 11.5169 8.98402 11.4832 8.38183C11.4835 8.38183 11.4839 8.38191 11.4844 8.38199C11.4765 8.2425 11.4668 8.10313 11.4553 7.96391L11.4545 7.96383C11.4196 7.53925 11.3665 7.12723 11.2854 6.74733C11.2821 6.73191 11.2786 6.71677 11.2752 6.70143C14.6053 6.40361 17 5.58474 17 4.62149C17 3.6021 14.3188 2.74415 10.6846 2.4947C10.6855 2.52876 10.6865 2.56274 10.6865 2.59699C10.6865 2.69213 10.6827 2.78613 10.6752 2.87887C12.9515 3.10096 14.5667 3.66318 14.5667 4.33257C14.5667 4.97209 13.0924 5.52579 10.976 5.77288C10.9013 5.60989 10.8176 5.46274 10.7245 5.33506C10.4704 4.98621 10.1641 4.77146 9.71488 4.70022L9.12291 4.60623L9.49629 4.12711C9.75401 3.79641 9.93941 3.3388 9.98201 2.82304H9.98208C9.98815 2.74883 9.99138 2.67348 9.99138 2.59707C9.99138 2.56776 9.99056 2.53877 9.9896 2.50992C9.98904 2.49165 9.98837 2.47346 9.98748 2.45535H9.9874C9.93235 1.3234 9.22454 0.503121 8.45938 0.503121C8.36534 0.503121 8.31184 0.49981 8.30946 0.500076H8.30935L8.30924 0.5ZM6.27091 13.1764C2.65842 13.4296 0 14.2841 0 15.2998C0 16.515 3.80343 17.5 8.49524 17.5C13.187 17.5 16.9904 16.5151 16.9904 15.2999C16.9904 14.2873 14.3485 13.435 10.7531 13.1788L10.7288 13.5567C12.9743 13.7871 14.5631 14.3542 14.5631 15.0178C14.5631 15.8859 11.8463 16.5894 8.49505 16.5894C5.14378 16.5894 2.427 15.8858 2.427 15.0179C2.427 14.3506 4.03329 13.781 6.2984 13.553L6.27087 13.1764L6.27091 13.1764Z" fill="#252525" fill-opacity="0.35"/>
</svg>
