<svg width="19" height="14" viewBox="0 0 19 14" fill="none" xmlns="http://www.w3.org/2000/svg">
<path d="M5.23188 0.875H19V4.375H18.1395V5.25H12.9764C12.7482 5.25 12.5294 5.34219 12.368 5.50628C12.2066 5.67038 12.1159 5.89294 12.1159 6.125V7C12.1159 7.46413 11.9346 7.90925 11.6119 8.23744C11.2891 8.56563 10.8514 8.75 10.3949 8.75H7.48641C7.15942 8.75 6.85824 8.9425 6.71196 9.24L4.60371 13.5188C4.45743 13.8163 4.16486 14 3.83786 14H0.929348C0.929348 14 -1.65217 14 1.78986 8.75C1.78986 8.75 4.37138 5.25 0.929348 5.25V0.875H1.78986L2.22011 0H4.80163L5.23188 0.875ZM11.2554 7V6.125C11.2554 5.89294 11.1648 5.67038 11.0034 5.50628C10.842 5.34219 10.6231 5.25 10.3949 5.25H9.53442C9.53442 5.25 8.67391 6.125 9.53442 7C9.07798 7 8.64023 6.81563 8.31748 6.48744C7.99473 6.15925 7.81341 5.71413 7.81341 5.25C7.58519 5.25 7.36631 5.34219 7.20494 5.50628C7.04356 5.67038 6.9529 5.89294 6.9529 6.125V7C6.9529 7.23206 7.04356 7.45462 7.20494 7.61872C7.36631 7.78281 7.58519 7.875 7.81341 7.875H10.3949C10.6231 7.875 10.842 7.78281 11.0034 7.61872C11.1648 7.45462 11.2554 7.23206 11.2554 7Z" fill="white" fill-opacity="0.12"/>
</svg>
