<svg width="19" height="12" viewBox="0 0 19 12" fill="none" xmlns="http://www.w3.org/2000/svg">
<path d="M18.731 6.47774C18.9103 6.87771 19 7.29331 19 7.72454V8.3995C19 8.63698 18.9691 8.86509 18.9072 9.08383C18.8454 9.30257 18.7526 9.50568 18.6289 9.69317C18.5052 9.88066 18.3568 10.0494 18.1836 10.1994C18.0105 10.3494 17.8187 10.4744 17.6085 10.5744C17.5157 10.7931 17.3951 10.99 17.2467 11.165C17.0982 11.3399 16.9281 11.4868 16.7364 11.6056C16.5447 11.7243 16.3406 11.8212 16.1241 11.8962C15.9077 11.9712 15.6788 12.0055 15.4376 11.9993C15.0109 11.9993 14.6151 11.893 14.2502 11.6805C13.8853 11.4681 13.5946 11.1743 13.3782 10.7994H6.81007C6.5936 11.1743 6.30293 11.4681 5.93803 11.6805C5.57314 11.893 5.17732 11.9993 4.75058 11.9993C4.32384 11.9993 3.92802 11.893 3.56313 11.6805C3.19823 11.4681 2.90756 11.1743 2.69109 10.7994H1.18822C1.02124 10.7994 0.866623 10.7681 0.724376 10.7056C0.58213 10.6431 0.458437 10.5587 0.353298 10.4525C0.248159 10.3463 0.161574 10.2181 0.0935427 10.0681C0.0255117 9.91815 -0.00541156 9.76191 0.000773081 9.59942V7.19957C0.000773081 6.70585 0.0935428 6.24025 0.279082 5.80278C0.464621 5.3653 0.718192 4.98408 1.03979 4.6591C1.36139 4.33411 1.73866 4.07476 2.17158 3.88102C2.60451 3.68728 3.06836 3.59353 3.56313 3.59978H3.90638L6.94922 0.524968C7.11621 0.356229 7.30793 0.228111 7.52439 0.140617C7.74086 0.0531218 7.96969 0.00624962 8.21089 0H16.6251V1.19993H16.3561L18.731 6.47774ZM4.75058 10.7994C4.91757 10.7994 5.07218 10.7681 5.21443 10.7056C5.35668 10.6431 5.48037 10.5587 5.58551 10.4525C5.69065 10.3463 5.77723 10.2181 5.84526 10.0681C5.91329 9.91815 5.94422 9.76191 5.93803 9.59942C5.93803 9.43068 5.90711 9.27444 5.84526 9.1307C5.78342 8.98696 5.69992 8.86197 5.59478 8.75572C5.48965 8.64948 5.36286 8.56199 5.21443 8.49324C5.066 8.42449 4.91138 8.39325 4.75058 8.3995C4.58359 8.3995 4.42898 8.43074 4.28673 8.49324C4.14448 8.55574 4.02079 8.64011 3.91565 8.74635C3.81051 8.85259 3.72393 8.98071 3.6559 9.1307C3.58787 9.28069 3.55694 9.43693 3.56313 9.59942C3.56313 9.76816 3.59405 9.9244 3.6559 10.0681C3.71774 10.2119 3.80124 10.3369 3.90638 10.4431C4.01152 10.5494 4.1383 10.6369 4.28673 10.7056C4.43516 10.7744 4.58978 10.8056 4.75058 10.7994ZM10.6878 1.19993H8.21089C8.05009 1.19993 7.91093 1.2593 7.79342 1.37804L5.59478 3.59978H10.6878V1.19993ZM11.8753 3.59978H16.1334L15.215 1.54678C15.1655 1.44054 15.0913 1.35617 14.9924 1.29367C14.8934 1.23118 14.7852 1.19993 14.6677 1.19993H11.8753V3.59978ZM15.4376 10.7994C15.6046 10.7994 15.7592 10.7681 15.9015 10.7056C16.0437 10.6431 16.1674 10.5587 16.2726 10.4525C16.3777 10.3463 16.4643 10.2181 16.5323 10.0681C16.6004 9.91815 16.6313 9.76191 16.6251 9.59942C16.6251 9.43068 16.5942 9.27444 16.5323 9.1307C16.4705 8.98696 16.387 8.86197 16.2818 8.75572C16.1767 8.64948 16.0499 8.56199 15.9015 8.49324C15.7531 8.42449 15.5984 8.39325 15.4376 8.3995C15.2707 8.3995 15.116 8.43074 14.9738 8.49324C14.8316 8.55574 14.7079 8.64011 14.6027 8.74635C14.4976 8.85259 14.411 8.98071 14.343 9.1307C14.2749 9.28069 14.244 9.43693 14.2502 9.59942C14.2502 9.76816 14.2811 9.9244 14.343 10.0681C14.4048 10.2119 14.4883 10.3369 14.5934 10.4431C14.6986 10.5494 14.8254 10.6369 14.9738 10.7056C15.1222 10.7744 15.2768 10.8056 15.4376 10.7994Z" fill="white" fill-opacity="0.12"/>
</svg>
